<?xml version="1.0" encoding="UTF-8"?>
<svg id="Layer_2" xmlns="http://www.w3.org/2000/svg" width="1801.09" height="378.55" viewBox="0 0 1801.09 378.55">
  <defs>
    <style>
      .cls-1 {
        fill: #d93739;
      }
    </style>
  </defs>
  <g id="Layer_1-2" data-name="Layer_1">
    <g>
      <g>
        <path d="M0,6.82h107.85c49.73,0,88.1,13.15,115.1,39.43,27,26.29,40.5,63.73,40.5,112.33s-13.22,85.55-39.65,111.69c-26.43,26.15-64.23,39.22-113.39,39.22H0V6.82Z"/>
        <path d="M334.43,299.69c-18.05-9.95-31.97-23.94-41.78-41.99-9.8-18.04-14.71-39.01-14.71-62.88s4.9-44.83,14.71-62.88c9.81-18.04,23.66-32.04,41.56-41.99,17.9-9.94,38.79-14.92,62.67-14.92s44.12,5.05,61.6,15.13c17.48,10.09,30.91,24.58,40.29,43.48,9.38,18.9,14.07,41.14,14.07,66.72v13.64h-159.44c.57,15.63,4.83,27.43,12.79,35.38,7.95,7.96,18.76,11.94,32.4,11.94,20.18,0,32.82-8.24,37.94-24.72l73.32,4.26c-6.25,23.59-19.33,41.78-39.22,54.57-19.9,12.79-44.33,19.18-73.32,19.18-23.87,0-44.83-4.98-62.88-14.92ZM426.72,138.55c-7.39-7.67-17.34-11.51-29.84-11.51s-22.24,3.98-30.05,11.94c-7.82,7.96-12.3,19.04-13.43,33.25h85.69c-.85-14.77-4.98-26-12.36-33.68Z"/>
        <path d="M553.97,293.5c-19.18-14.07-29.63-32.75-31.33-56.06l73.75-2.56c1.98,10.23,6.25,17.9,12.79,23.02,6.53,5.12,15.77,7.67,27.71,7.67,20.74,0,31.12-6.53,31.12-19.61,0-6.82-2.77-12-8.31-15.56-5.54-3.55-16.84-6.75-33.89-9.59-25.3-3.98-44.91-8.88-58.83-14.71-13.93-5.82-23.87-13.14-29.84-21.95-5.97-8.81-8.95-20.32-8.95-34.53,0-23.02,9.09-41.2,27.28-54.57,18.18-13.36,44.76-20.04,79.72-20.04,32.68,0,58.04,7.18,76.09,21.53,18.04,14.35,28.49,34.04,31.33,59.04l-72.9,2.56c-1.43-10.8-5.19-19.18-11.3-25.15-6.11-5.97-14.14-8.95-24.09-8.95s-17.2,2.06-22.59,6.18c-5.4,4.12-8.1,9.74-8.1,16.84s2.77,12.86,8.31,16.41c5.54,3.56,15.56,6.47,30.05,8.74,36.66,5.12,62.73,13.29,78.23,24.51,15.49,11.23,23.23,27.07,23.23,47.53,0,22.45-9.45,39.79-28.35,52.01-18.9,12.22-45.12,18.33-78.65,18.33-35.81,0-63.3-7.03-82.49-21.1Z"/>
        <path d="M761.79,0h75.45v54.57h-75.45V0ZM763.07,80.14h73.32v229.35h-73.32V80.14Z"/>
        <path d="M900.55,361.93c-17.76-11.08-29.63-26.72-35.6-46.89l75.03-5.54c2.27,6.82,6.25,11.94,11.94,15.35,5.68,3.41,14.21,5.12,25.58,5.12,27.85,0,41.78-14.64,41.78-43.91v-20.46c-5.4,10.23-14.07,18.4-26,24.51-11.94,6.11-25.3,9.17-40.07,9.17-18.48,0-34.89-4.54-49.24-13.64-14.35-9.09-25.58-22.09-33.68-39.01-8.1-16.91-12.15-36.59-12.15-59.04s3.98-41.35,11.94-58.4c7.95-17.05,19.11-30.33,33.46-39.86,14.35-9.52,30.76-14.28,49.24-14.28,31.55,0,54.28,13.36,68.21,40.07v-34.96h72.04v204.62c0,30.97-10.44,54.35-31.33,70.13-20.89,15.77-48.96,23.66-84.19,23.66s-59.19-5.54-76.95-16.62ZM1008.4,231.48c7.53-10.8,11.3-26,11.3-45.61,0-18.47-3.84-33.04-11.51-43.7s-18.05-15.99-31.12-15.99-24.3,5.54-31.97,16.63c-7.67,11.08-11.51,25.86-11.51,44.33s3.98,33.18,11.94,44.12c7.95,10.94,18.47,16.41,31.55,16.41s23.8-5.39,31.33-16.2Z"/>
        <path d="M1110.92,80.14h65.65l1.71,37.09c11.36-28.14,33.68-42.2,66.93-42.2,24.44,0,43.62,7.67,57.55,23.02,13.92,15.35,20.89,36.66,20.89,63.94v147.5h-73.32v-122.35c0-18.76-2.2-32.61-6.61-41.56-4.41-8.95-12.44-13.43-24.09-13.43s-20.46,4.76-26.43,14.28c-5.97,9.53-8.95,23.09-8.95,40.71v122.35h-73.32V80.14Z"/>
        <path d="M1364.36,297.98c-14.92-11.08-22.38-26.43-22.38-46.04s6.32-35.02,18.97-46.25c12.64-11.22,31.9-19.54,57.76-24.94l71.19-14.49c0-13.36-2.92-23.51-8.74-30.48-5.83-6.96-14.28-10.44-25.36-10.44-21.31,0-33.68,10.09-37.09,30.27l-72.9-2.56c4.54-26.14,16.2-45.68,34.96-58.62,18.76-12.93,43.76-19.4,75.03-19.4,71.62,0,107.43,32.26,107.43,96.77v72.47c0,6.82,1.07,11.44,3.2,13.85,2.13,2.42,5.47,3.62,10.02,3.62h5.54v47.75c-3.13.85-7.11,1.56-11.94,2.13-4.84.57-9.53.85-14.07.85-29.56,0-47.04-12.79-52.43-38.37-6.25,12.79-16.06,22.74-29.41,29.84-13.36,7.1-30.13,10.66-50.3,10.66-24.73,0-44.55-5.54-59.47-16.62ZM1476.9,254.29c8.67-8.38,13-20.25,13-35.6v-9.38l-44.76,10.23c-18.48,3.98-27.71,12.51-27.71,25.58,0,6.82,2.13,12.15,6.39,15.99,4.26,3.84,10.51,5.75,18.76,5.75,14.21,0,25.64-4.19,34.32-12.58Z"/>
        <path d="M1614.38,293.72c-11.08-10.51-16.63-27-16.63-49.45V6.82h73.32v229.35c0,7.11,1.71,12.3,5.12,15.56,3.41,3.27,8.38,4.9,14.92,4.9h13.64v52.86h-42.2c-21.03,0-37.09-5.26-48.17-15.77Z"/>
        <path d="M1725.64,0h75.45v54.57h-75.45V0ZM1726.92,80.14h73.32v229.35h-73.32V80.14Z"/>
      </g>
      <g>
        <path class="cls-1" d="M0,6.82h107.85c49.73,0,88.1,13.15,115.1,39.43,27,26.29,40.5,63.73,40.5,112.33s-13.22,85.55-39.65,111.69c-26.43,26.15-64.23,39.22-113.39,39.22H0V6.82Z"/>
        <path class="cls-1" d="M334.43,299.69c-18.05-9.95-31.97-23.94-41.78-41.99-9.8-18.04-14.71-39.01-14.71-62.88s4.9-44.83,14.71-62.88c9.81-18.04,23.66-32.04,41.56-41.99,17.9-9.94,38.79-14.92,62.67-14.92s44.12,5.05,61.6,15.13c17.48,10.09,30.91,24.58,40.29,43.48,9.38,18.9,14.07,41.14,14.07,66.72v13.64h-159.44c.57,15.63,4.83,27.43,12.79,35.38,7.95,7.96,18.76,11.94,32.4,11.94,20.18,0,32.82-8.24,37.94-24.72l73.32,4.26c-6.25,23.59-19.33,41.78-39.22,54.57-19.9,12.79-44.33,19.18-73.32,19.18-23.87,0-44.83-4.98-62.88-14.92ZM426.72,138.55c-7.39-7.67-17.34-11.51-29.84-11.51s-22.24,3.98-30.05,11.94c-7.82,7.96-12.3,19.04-13.43,33.25h85.69c-.85-14.77-4.98-26-12.36-33.68Z"/>
        <path class="cls-1" d="M553.97,293.5c-19.18-14.07-29.63-32.75-31.33-56.06l73.75-2.56c1.98,10.23,6.25,17.9,12.79,23.02,6.53,5.12,15.77,7.67,27.71,7.67,20.74,0,31.12-6.53,31.12-19.61,0-6.82-2.77-12-8.31-15.56-5.54-3.55-16.84-6.75-33.89-9.59-25.3-3.98-44.91-8.88-58.83-14.71-13.93-5.82-23.87-13.14-29.84-21.95-5.97-8.81-8.95-20.32-8.95-34.53,0-23.02,9.09-41.2,27.28-54.57,18.18-13.36,44.76-20.04,79.72-20.04,32.68,0,58.04,7.18,76.09,21.53,18.04,14.35,28.49,34.04,31.33,59.04l-72.9,2.56c-1.43-10.8-5.19-19.18-11.3-25.15-6.11-5.97-14.14-8.95-24.09-8.95s-17.2,2.06-22.59,6.18c-5.4,4.12-8.1,9.74-8.1,16.84s2.77,12.86,8.31,16.41c5.54,3.56,15.56,6.47,30.05,8.74,36.66,5.12,62.73,13.29,78.23,24.51,15.49,11.23,23.23,27.07,23.23,47.53,0,22.45-9.45,39.79-28.35,52.01-18.9,12.22-45.12,18.33-78.65,18.33-35.81,0-63.3-7.03-82.49-21.1Z"/>
        <path class="cls-1" d="M761.79,0h75.45v54.57h-75.45V0ZM763.07,80.14h73.32v229.35h-73.32V80.14Z"/>
        <path class="cls-1" d="M900.55,361.93c-17.76-11.08-29.63-26.72-35.6-46.89l75.03-5.54c2.27,6.82,6.25,11.94,11.94,15.35,5.68,3.41,14.21,5.12,25.58,5.12,27.85,0,41.78-14.64,41.78-43.91v-20.46c-5.4,10.23-14.07,18.4-26,24.51-11.94,6.11-25.3,9.17-40.07,9.17-18.48,0-34.89-4.54-49.24-13.64-14.35-9.09-25.58-22.09-33.68-39.01-8.1-16.91-12.15-36.59-12.15-59.04s3.98-41.35,11.94-58.4c7.95-17.05,19.11-30.33,33.46-39.86,14.35-9.52,30.76-14.28,49.24-14.28,31.55,0,54.28,13.36,68.21,40.07v-34.96h72.04v204.62c0,30.97-10.44,54.35-31.33,70.13-20.89,15.77-48.96,23.66-84.19,23.66s-59.19-5.54-76.95-16.62ZM1008.4,231.48c7.53-10.8,11.3-26,11.3-45.61,0-18.47-3.84-33.04-11.51-43.7s-18.05-15.99-31.12-15.99-24.3,5.54-31.97,16.63c-7.67,11.08-11.51,25.86-11.51,44.33s3.98,33.18,11.94,44.12c7.95,10.94,18.47,16.41,31.55,16.41s23.8-5.39,31.33-16.2Z"/>
        <path class="cls-1" d="M1110.92,80.14h65.65l1.71,37.09c11.36-28.14,33.68-42.2,66.93-42.2,24.44,0,43.62,7.67,57.55,23.02,13.92,15.35,20.89,36.66,20.89,63.94v147.5h-73.32v-122.35c0-18.76-2.2-32.61-6.61-41.56-4.41-8.95-12.44-13.43-24.09-13.43s-20.46,4.76-26.43,14.28c-5.97,9.53-8.95,23.09-8.95,40.71v122.35h-73.32V80.14Z"/>
        <path class="cls-1" d="M1364.36,297.98c-14.92-11.08-22.38-26.43-22.38-46.04s6.32-35.02,18.97-46.25c12.64-11.22,31.9-19.54,57.76-24.94l71.19-14.49c0-13.36-2.92-23.51-8.74-30.48-5.83-6.96-14.28-10.44-25.36-10.44-21.31,0-33.68,10.09-37.09,30.27l-72.9-2.56c4.54-26.14,16.2-45.68,34.96-58.62,18.76-12.93,43.76-19.4,75.03-19.4,71.62,0,107.43,32.26,107.43,96.77v72.47c0,6.82,1.07,11.44,3.2,13.85,2.13,2.42,5.47,3.62,10.02,3.62h5.54v47.75c-3.13.85-7.11,1.56-11.94,2.13-4.84.57-9.53.85-14.07.85-29.56,0-47.04-12.79-52.43-38.37-6.25,12.79-16.06,22.74-29.41,29.84-13.36,7.1-30.13,10.66-50.3,10.66-24.73,0-44.55-5.54-59.47-16.62ZM1476.9,254.29c8.67-8.38,13-20.25,13-35.6v-9.38l-44.76,10.23c-18.48,3.98-27.71,12.51-27.71,25.58,0,6.82,2.13,12.15,6.39,15.99,4.26,3.84,10.51,5.75,18.76,5.75,14.21,0,25.64-4.19,34.32-12.58Z"/>
        <path class="cls-1" d="M1614.38,293.72c-11.08-10.51-16.63-27-16.63-49.45V6.82h73.32v229.35c0,7.11,1.71,12.3,5.12,15.56,3.41,3.27,8.38,4.9,14.92,4.9h13.64v52.86h-42.2c-21.03,0-37.09-5.26-48.17-15.77Z"/>
        <path class="cls-1" d="M1725.64,0h75.45v54.57h-75.45V0ZM1726.92,80.14h73.32v229.35h-73.32V80.14Z"/>
      </g>
    </g>
  </g>
</svg>