<?xml version="1.0" encoding="UTF-8"?>
<svg id="Layer_2" xmlns="http://www.w3.org/2000/svg" width="2134" height="466.98" viewBox="0 0 2134 466.98">
  <defs>
    <style>
      .cls-1 {
        fill: #d93739;
      }
    </style>
  </defs>
  <g id="Layer_1-2" data-name="Layer_1">
    <g>
      <g>
        <path d="M0,4.77h125.09c60.07,0,106.28,16.35,138.61,49.03,32.33,32.69,48.5,79.24,48.5,139.67s-15.9,106.37-47.71,138.87c-31.8,32.52-77.21,48.76-136.22,48.76H0V4.77ZM212.55,289.68c19.08-21.02,28.62-53.09,28.62-96.2s-9.54-75.8-28.62-97-48.24-31.8-87.46-31.8h-56.19v256.55h56.19c39.22,0,68.38-10.51,87.46-31.54Z"/>
        <path d="M401.52,369.18c-21.03-12.19-37.19-29.42-48.5-51.68-11.31-22.26-16.96-48.24-16.96-77.92s5.65-55.21,16.96-77.65c11.31-22.44,27.3-39.75,47.97-51.95,20.67-12.19,44.79-18.29,72.35-18.29s50.44,6.01,70.76,18.02c20.32,12.02,36.04,29.42,47.18,52.21,11.13,22.79,16.7,49.92,16.7,81.36v15.37h-201.42c1.41,24.38,8.13,42.93,20.14,55.66,12.01,12.72,28.27,19.08,48.77,19.08,14.84,0,27.38-3.44,37.63-10.34,10.25-6.89,17.31-16.51,21.2-28.89l69.44,4.24c-7.78,27.56-23.06,49.3-45.85,65.2-22.79,15.9-50.45,23.85-82.95,23.85-27.92,0-52.39-6.1-73.41-18.29ZM518.39,162.2c-11.31-11.31-26.33-16.96-45.06-16.96s-33.48,5.83-45.32,17.49c-11.84,11.66-19,28.45-21.47,50.36h130.92c-1.42-22.61-7.78-39.57-19.08-50.89Z"/>
        <path d="M663.63,361.5c-22.62-17.31-34.98-40.46-37.1-69.44l69.44-3.18c2.47,15.2,8.75,26.77,18.82,34.72,10.07,7.95,24.65,11.93,43.73,11.93,33.92,0,50.89-10.6,50.89-31.8,0-6.71-1.59-12.19-4.77-16.43-3.18-4.24-9.19-7.95-18.02-11.13-8.84-3.18-21.91-6.18-39.22-9.01-28.98-4.94-51.68-11.04-68.11-18.29-16.43-7.24-28.18-16.25-35.25-27.03-7.07-10.78-10.6-24.47-10.6-41.08,0-26.85,10.42-48.41,31.27-64.67,20.85-16.25,50.36-24.38,88.52-24.38s65.46,8.66,86.13,25.97c20.67,17.32,33.13,40.47,37.37,69.44l-68.91,3.18c-2.48-14.48-8.48-25.88-18.02-34.19-9.54-8.3-21.91-12.46-37.1-12.46s-28.01,3.18-36.31,9.54c-8.31,6.36-12.46,14.84-12.46,25.44,0,11.31,4.24,19.7,12.72,25.18,8.48,5.48,23.5,9.99,45.06,13.52,29.68,4.6,53.09,10.52,70.23,17.76,17.14,7.25,29.42,16.26,36.84,27.03,7.42,10.78,11.13,24.3,11.13,40.55,0,26.86-11.05,47.71-33.13,62.55-22.09,14.84-51.51,22.26-88.25,22.26-40.64,0-72.27-8.66-94.88-25.97Z"/>
        <path d="M907.99,0h70.5v60.43h-70.5V0ZM909.05,98.06h67.85v283.05h-67.85V98.06Z"/>
        <path d="M1064.36,445.51c-21.56-14.31-35.7-34.01-42.4-59.1l69.97-4.77c3.53,11.31,9.81,19.79,18.82,25.44,9.01,5.65,22.34,8.48,40.02,8.48,43.46,0,65.2-19.26,65.2-57.78v-36.04c-6.72,13.78-17.49,24.83-32.33,33.13-14.84,8.31-31.46,12.46-49.83,12.46-23.32,0-44.09-5.74-62.28-17.23-18.2-11.48-32.42-27.64-42.67-48.5-10.25-20.85-15.37-44.7-15.37-71.56s5.04-50.7,15.11-71.56c10.07-20.85,24.2-37.19,42.4-49.03,18.2-11.84,38.78-17.76,61.75-17.76,20.14,0,37.63,4.51,52.48,13.52,14.84,9.01,25.79,21.29,32.86,36.84v-43.99h66.26v258.14c0,35.69-12.02,63.08-36.04,82.16-24.04,19.08-56.54,28.62-97.53,28.62-36.04,0-64.85-7.16-86.4-21.47ZM1198.73,291.27c11.84-15.37,17.76-36.48,17.76-63.34s-6.01-46.12-18.02-60.96c-12.02-14.84-28.28-22.26-48.77-22.26s-36.57,7.6-48.24,22.79c-11.66,15.2-17.49,35.87-17.49,62.02s5.91,46.83,17.76,62.02c11.83,15.2,27.83,22.79,47.97,22.79s37.19-7.69,49.03-23.06Z"/>
        <path d="M1337.86,98.06h61.49l1.59,48.77c7.06-18.73,18.02-32.6,32.86-41.61,14.84-9.01,32.15-13.52,51.95-13.52,30.74,0,54.5,9.81,71.29,29.42,16.78,19.61,25.18,45.68,25.18,78.18v181.81h-67.85v-160.08c0-24.73-3.8-43.28-11.4-55.66-7.6-12.37-20.23-18.55-37.9-18.55s-32.86,6.45-43.46,19.35c-10.6,12.9-15.9,31.19-15.9,54.86v160.08h-67.85V98.06Z"/>
        <path d="M1640.26,367.06c-17.85-13.6-26.77-32.6-26.77-56.98s7.5-43.02,22.53-56.98c15.02-13.96,38.25-23.94,69.7-29.95l93.82-18.55c0-19.79-4.6-34.8-13.78-45.05-9.19-10.25-22.62-15.37-40.28-15.37-32.16,0-51.42,14.67-57.78,43.99l-69.44-3.18c5.65-29.68,19.43-52.65,41.34-68.91,21.91-16.25,50.53-24.38,85.87-24.38,39.93,0,70.23,10.16,90.9,30.48,20.67,20.32,31.01,49.39,31.01,87.2v102.83c0,7.42,1.23,12.55,3.71,15.37,2.47,2.83,6.54,4.24,12.19,4.24h9.01v49.3c-5.66,1.41-13.78,2.12-24.38,2.12-16.61,0-29.95-3.53-40.02-10.6-10.07-7.06-16.52-18.9-19.35-35.51-7.07,15.2-19.17,27.39-36.31,36.57-17.14,9.19-37.2,13.78-60.16,13.78-30.04,0-53.98-6.8-71.82-20.41ZM1779.4,318.56c13.43-13.07,20.14-30.39,20.14-51.95v-15.9l-73.15,14.84c-14.84,2.83-25.62,7.42-32.33,13.78-6.72,6.36-10.07,14.49-10.07,24.38,0,10.96,3.62,19.44,10.87,25.44,7.24,6.01,17.57,9.01,31.01,9.01,22.26,0,40.1-6.54,53.54-19.61Z"/>
        <path d="M1937.09,364.94c-11.84-10.78-17.76-27.65-17.76-50.62l.53-309.55h67.85v302.66c0,14.14,7.06,21.2,21.2,21.2h20.67v52.48h-41.87c-21.91,0-38.78-5.38-50.62-16.17Z"/>
        <path d="M2063.5,0h70.5v60.43h-70.5V0ZM2064.56,98.06h67.85v283.05h-67.85V98.06Z"/>
      </g>
      <g>
        <path class="cls-1" d="M0,4.77h125.09c60.07,0,106.28,16.35,138.61,49.03,32.33,32.69,48.5,79.24,48.5,139.67s-15.9,106.37-47.71,138.87c-31.8,32.52-77.21,48.76-136.22,48.76H0V4.77ZM212.55,289.68c19.08-21.02,28.62-53.09,28.62-96.2s-9.54-75.8-28.62-97-48.24-31.8-87.46-31.8h-56.19v256.55h56.19c39.22,0,68.38-10.51,87.46-31.54Z"/>
        <path class="cls-1" d="M401.52,369.18c-21.03-12.19-37.19-29.42-48.5-51.68-11.31-22.26-16.96-48.24-16.96-77.92s5.65-55.21,16.96-77.65c11.31-22.44,27.3-39.75,47.97-51.95,20.67-12.19,44.79-18.29,72.35-18.29s50.44,6.01,70.76,18.02c20.32,12.02,36.04,29.42,47.18,52.21,11.13,22.79,16.7,49.92,16.7,81.36v15.37h-201.42c1.41,24.38,8.13,42.93,20.14,55.66,12.01,12.72,28.27,19.08,48.77,19.08,14.84,0,27.38-3.44,37.63-10.34,10.25-6.89,17.31-16.51,21.2-28.89l69.44,4.24c-7.78,27.56-23.06,49.3-45.85,65.2-22.79,15.9-50.45,23.85-82.95,23.85-27.92,0-52.39-6.1-73.41-18.29ZM518.39,162.2c-11.31-11.31-26.33-16.96-45.06-16.96s-33.48,5.83-45.32,17.49c-11.84,11.66-19,28.45-21.47,50.36h130.92c-1.42-22.61-7.78-39.57-19.08-50.89Z"/>
        <path class="cls-1" d="M663.63,361.5c-22.62-17.31-34.98-40.46-37.1-69.44l69.44-3.18c2.47,15.2,8.75,26.77,18.82,34.72,10.07,7.95,24.65,11.93,43.73,11.93,33.92,0,50.89-10.6,50.89-31.8,0-6.71-1.59-12.19-4.77-16.43-3.18-4.24-9.19-7.95-18.02-11.13-8.84-3.18-21.91-6.18-39.22-9.01-28.98-4.94-51.68-11.04-68.11-18.29-16.43-7.24-28.18-16.25-35.25-27.03-7.07-10.78-10.6-24.47-10.6-41.08,0-26.85,10.42-48.41,31.27-64.67,20.85-16.25,50.36-24.38,88.52-24.38s65.46,8.66,86.13,25.97c20.67,17.32,33.13,40.47,37.37,69.44l-68.91,3.18c-2.48-14.48-8.48-25.88-18.02-34.19-9.54-8.3-21.91-12.46-37.1-12.46s-28.01,3.18-36.31,9.54c-8.31,6.36-12.46,14.84-12.46,25.44,0,11.31,4.24,19.7,12.72,25.18,8.48,5.48,23.5,9.99,45.06,13.52,29.68,4.6,53.09,10.52,70.23,17.76,17.14,7.25,29.42,16.26,36.84,27.03,7.42,10.78,11.13,24.3,11.13,40.55,0,26.86-11.05,47.71-33.13,62.55-22.09,14.84-51.51,22.26-88.25,22.26-40.64,0-72.27-8.66-94.88-25.97Z"/>
        <path class="cls-1" d="M907.99,0h70.5v60.43h-70.5V0ZM909.05,98.06h67.85v283.05h-67.85V98.06Z"/>
        <path class="cls-1" d="M1064.36,445.51c-21.56-14.31-35.7-34.01-42.4-59.1l69.97-4.77c3.53,11.31,9.81,19.79,18.82,25.44,9.01,5.65,22.34,8.48,40.02,8.48,43.46,0,65.2-19.26,65.2-57.78v-36.04c-6.72,13.78-17.49,24.83-32.33,33.13-14.84,8.31-31.46,12.46-49.83,12.46-23.32,0-44.09-5.74-62.28-17.23-18.2-11.48-32.42-27.64-42.67-48.5-10.25-20.85-15.37-44.7-15.37-71.56s5.04-50.7,15.11-71.56c10.07-20.85,24.2-37.19,42.4-49.03,18.2-11.84,38.78-17.76,61.75-17.76,20.14,0,37.63,4.51,52.48,13.52,14.84,9.01,25.79,21.29,32.86,36.84v-43.99h66.26v258.14c0,35.69-12.02,63.08-36.04,82.16-24.04,19.08-56.54,28.62-97.53,28.62-36.04,0-64.85-7.16-86.4-21.47ZM1198.73,291.27c11.84-15.37,17.76-36.48,17.76-63.34s-6.01-46.12-18.02-60.96c-12.02-14.84-28.28-22.26-48.77-22.26s-36.57,7.6-48.24,22.79c-11.66,15.2-17.49,35.87-17.49,62.02s5.91,46.83,17.76,62.02c11.83,15.2,27.83,22.79,47.97,22.79s37.19-7.69,49.03-23.06Z"/>
        <path class="cls-1" d="M1337.86,98.06h61.49l1.59,48.77c7.06-18.73,18.02-32.6,32.86-41.61,14.84-9.01,32.15-13.52,51.95-13.52,30.74,0,54.5,9.81,71.29,29.42,16.78,19.61,25.18,45.68,25.18,78.18v181.81h-67.85v-160.08c0-24.73-3.8-43.28-11.4-55.66-7.6-12.37-20.23-18.55-37.9-18.55s-32.86,6.45-43.46,19.35c-10.6,12.9-15.9,31.19-15.9,54.86v160.08h-67.85V98.06Z"/>
        <path class="cls-1" d="M1640.26,367.06c-17.85-13.6-26.77-32.6-26.77-56.98s7.5-43.02,22.53-56.98c15.02-13.96,38.25-23.94,69.7-29.95l93.82-18.55c0-19.79-4.6-34.8-13.78-45.05-9.19-10.25-22.62-15.37-40.28-15.37-32.16,0-51.42,14.67-57.78,43.99l-69.44-3.18c5.65-29.68,19.43-52.65,41.34-68.91,21.91-16.25,50.53-24.38,85.87-24.38,39.93,0,70.23,10.16,90.9,30.48,20.67,20.32,31.01,49.39,31.01,87.2v102.83c0,7.42,1.23,12.55,3.71,15.37,2.47,2.83,6.54,4.24,12.19,4.24h9.01v49.3c-5.66,1.41-13.78,2.12-24.38,2.12-16.61,0-29.95-3.53-40.02-10.6-10.07-7.06-16.52-18.9-19.35-35.51-7.07,15.2-19.17,27.39-36.31,36.57-17.14,9.19-37.2,13.78-60.16,13.78-30.04,0-53.98-6.8-71.82-20.41ZM1779.4,318.56c13.43-13.07,20.14-30.39,20.14-51.95v-15.9l-73.15,14.84c-14.84,2.83-25.62,7.42-32.33,13.78-6.72,6.36-10.07,14.49-10.07,24.38,0,10.96,3.62,19.44,10.87,25.44,7.24,6.01,17.57,9.01,31.01,9.01,22.26,0,40.1-6.54,53.54-19.61Z"/>
        <path class="cls-1" d="M1937.09,364.94c-11.84-10.78-17.76-27.65-17.76-50.62l.53-309.55h67.85v302.66c0,14.14,7.06,21.2,21.2,21.2h20.67v52.48h-41.87c-21.91,0-38.78-5.38-50.62-16.17Z"/>
        <path class="cls-1" d="M2063.5,0h70.5v60.43h-70.5V0ZM2064.56,98.06h67.85v283.05h-67.85V98.06Z"/>
      </g>
    </g>
  </g>
</svg>