<svg xmlns="http://www.w3.org/2000/svg" width="322" height="176" viewBox="0 0 322 176" fill="#555555"><path d="M80.4998 1.49287C73.6734 3.55367 71.4194 4.64847 68.5858 7.09566C66.2674 9.15646 63.9491 13.2136 64.6575 13.9864C64.8507 14.1152 62.7899 15.9184 60.0207 17.9792C57.3159 19.9756 53.2587 23.26 51.0691 25.3208C46.8187 29.2492 45.3375 29.5068 49.3303 25.6428C52.6791 22.4228 55.1907 18.1724 56.3499 13.7932C57.3803 9.86484 57.5735 3.74687 56.7363 1.62167C56.3499 0.52687 56.0923 0.59127 54.0959 2.26567C45.0799 9.86485 41.0871 20.1044 45.0155 25.5784C45.7239 26.6732 46.3679 27.9612 46.3679 28.5408C46.3679 29.1204 44.5647 31.6964 42.4395 34.2724C40.2499 36.784 37.1587 40.8412 35.5487 43.2884C32.3931 47.9252 30.9763 48.8912 33.8099 44.3832C36.4503 40.1972 37.3519 36.9128 37.3519 31.5032C37.3519 26.48 36.3859 22.6804 34.3895 19.6536L33.2947 17.9792L31.8135 19.9756C29.2375 23.5176 26.9191 30.2152 26.5971 35.3672C26.2751 39.5532 26.4683 40.648 27.6275 42.9664C28.4003 44.512 29.4307 45.8644 29.9459 46.122C31.4915 46.7016 31.1051 50.5012 29.0443 54.5583C28.0783 56.5547 26.4039 60.6119 25.4379 63.5743C24.4719 66.5367 23.5703 68.7907 23.3771 68.5975C23.1839 68.4687 23.5703 66.2791 24.1499 63.7675C25.6311 57.9071 25.2447 51.5959 23.1839 47.6032C21.574 44.512 17.5812 39.2312 16.744 39.2312C16.4864 39.2312 15.778 40.3904 15.1984 41.8072C13.9748 44.834 13.7172 56.2327 14.7476 59.6459C15.5848 62.6083 17.7744 65.5063 20.0284 66.6655C22.9263 68.1467 23.3127 69.9499 22.2179 77.2271C21.7028 80.7691 21.252 85.2127 21.252 87.1447C21.252 89.2055 20.93 90.7511 20.5436 90.8799C19.964 91.0731 19.964 91.4595 20.5436 92.4899C20.93 93.2627 21.252 95.3878 21.252 97.191C21.252 99.0586 21.8316 103.438 22.5399 106.98C23.3127 110.522 23.6991 113.613 23.5059 113.806C23.3127 113.999 23.1839 113.549 23.1839 112.84C23.1839 110.2 19.2556 103.695 15.5848 100.347C12.3648 97.3842 5.60279 93.5847 1.4812 92.3611C0.257599 92.0391 0 92.2323 0 93.5203C0 94.3575 0.901598 96.7402 1.932 98.8654C6.89078 108.654 13.7172 114.386 20.6724 114.515C22.7975 114.579 25.7599 116.64 25.7599 117.992C25.7599 119.087 31.6847 130.293 34.1963 133.963C35.6131 136.089 36.7079 138.021 36.5147 138.149C36.3215 138.343 35.2911 137.183 34.1963 135.638C29.0443 128.167 18.8692 122.951 9.33798 122.951C7.72798 122.951 6.43999 123.273 6.43999 123.595C6.43999 125.012 9.65998 129.262 12.88 132.16C19.0624 137.763 28.2715 140.919 33.2947 139.244C35.9351 138.343 37.6739 139.309 42.8259 144.783C45.3375 147.359 49.0083 150.965 51.0691 152.639C55.4483 156.31 55.3839 156.697 50.8759 153.605C45.3375 149.806 41.1515 148.518 33.8099 148.453C26.8547 148.453 20.608 149.613 20.608 150.965C20.608 152.317 26.7259 155.859 32.7151 157.92C40.1211 160.432 47.2695 160.689 51.3911 158.5C54.9331 156.697 56.4787 156.697 59.3767 158.693C62.4035 160.754 72.3854 165.712 75.541 166.743C76.8934 167.129 77.8594 167.644 77.6662 167.838C77.5374 168.031 75.6698 167.516 73.609 166.743C68.5858 164.875 62.0171 164.424 56.2855 165.648C51.1979 166.743 43.0191 170.478 43.3411 171.508C43.4699 171.895 45.1443 172.732 47.0763 173.376C58.3463 177.176 71.0974 176.081 76.7002 170.864C78.8254 168.868 80.7574 168.804 88.2278 170.414C95.4406 172.024 99.1114 172.41 99.1758 171.573C99.2402 171.186 97.8878 170.671 96.149 170.349C90.7394 169.383 80.1778 166.678 79.6626 166.163C79.3406 165.841 79.0186 163.587 78.9542 161.14C78.6966 153.155 74.1242 146.521 66.0742 142.464L62.9187 140.854L63.3695 143.881C64.1423 148.775 65.6235 153.992 67.169 157.083C68.779 160.303 73.8022 164.167 76.3782 164.167C77.151 164.167 78.0526 164.489 78.3102 164.94C79.727 167.194 67.6842 162.042 59.7631 156.954C54.8687 153.863 54.8043 153.605 56.5431 147.938C58.0243 143.173 57.4447 136.733 55.1907 132.225C53.2587 128.489 49.2659 123.724 48.6219 124.368C47.7847 125.141 46.4323 133.899 46.4323 138.343C46.3679 143.752 48.0423 147.423 51.9063 150.063C54.6755 151.995 55.9635 153.927 53.5807 152.639C51.4555 151.545 43.4055 143.688 40.6363 140.081C37.6095 136.153 37.5451 135.187 40.3787 131.452C44.6935 125.72 45.9171 118.894 43.9207 112.196C43.1479 109.813 42.1175 107.237 41.6023 106.529C40.7007 105.305 40.5075 105.627 37.4163 112.003C35.6131 115.738 33.8743 120.117 33.6167 121.727C32.9083 125.334 34.0031 130.099 35.9995 132.16C36.7079 132.997 37.3519 134.092 37.3519 134.607C37.3519 137.312 29.0443 122.565 27.0479 116.318C26.0175 112.969 26.9835 110.908 30.7831 108.461C34.3895 106.143 38.3179 100.733 39.6059 96.2894C40.6363 92.8119 40.8939 85.2127 39.9923 84.6975C39.0907 84.1179 28.0783 95.9674 26.5327 99.1874C24.9227 102.536 24.7295 106.4 26.0175 108.912C26.5971 110.071 26.7259 110.844 26.3395 111.101C25.9531 111.295 25.5667 111.359 25.4379 111.295C24.8583 110.651 23.1195 100.411 22.7331 95.3234C22.4111 90.1715 22.4755 89.5275 23.6991 88.3039C24.4075 87.5955 25.6955 86.8227 26.5327 86.5651C34.9047 83.9247 41.9887 75.6815 42.9547 67.3739L43.3411 64.0895L40.1855 65.9571C27.8851 73.1055 23.4415 78.1287 23.9567 84.4399C24.0211 86.1143 23.8279 87.2091 23.3127 87.4023C22.2823 87.7243 22.3467 86.0499 23.5059 78.3219C24.7939 69.6923 26.1463 65.3131 27.8851 64.1539C28.6579 63.7031 30.9119 63.1235 32.9083 62.8659C39.9279 62.1575 47.3339 57.1343 51.2623 50.4368C52.1639 48.8912 52.8079 47.3456 52.6791 47.0236C52.3571 46.0576 37.1587 51.2739 34.2607 53.3991C31.0407 55.7175 28.9799 58.8087 28.9799 61.1915C28.9799 62.1575 28.5291 63.1235 27.9495 63.3167C27.1767 63.6387 27.0479 63.3811 27.3699 62.2219C28.0139 60.2255 35.0979 45.6068 36.1927 44.19C36.9655 43.1596 38.1891 42.9664 44.4359 42.8376C51.2623 42.7088 52.1639 42.58 56.0279 40.7124C58.3463 39.5532 61.5019 37.3636 63.1119 35.7536L65.9454 32.7912H61.5019C50.6827 32.7912 42.8259 35.496 40.5719 39.9396C39.8635 41.292 38.8331 42.4512 38.3179 42.4512C37.0299 42.4512 40.5719 37.6212 46.1747 31.5032C50.9403 26.3512 50.4251 26.48 58.8615 28.2832C64.6575 29.5068 72.965 27.1884 78.117 22.8736L79.9846 21.3924L75.0902 20.6196C64.6575 19.074 58.7971 20.1044 54.6755 24.1616C53.3231 25.514 52.0351 26.4156 51.8419 26.2224C51.3267 25.7716 56.9295 20.7484 61.4375 17.6572C64.0779 15.854 66.0098 15.0812 68.6502 14.6948C76.0562 13.6644 83.0114 8.83446 86.3602 2.33007C87.5194 0.0760713 87.5194 -0.0527284 86.489 0.0116714C85.845 0.0116714 83.1402 0.72007 80.4998 1.49287Z" fill=""></path><path d="M234.416 0.397788C234.416 1.62138 238.215 6.83777 240.856 9.22057C244.269 12.2473 248.197 14.0505 252.641 14.5657C254.637 14.7589 257.02 15.5961 258.565 16.5621C262.945 19.3313 270.737 25.9645 269.964 26.2221C269.513 26.3509 268.225 25.4493 267.066 24.2257C263.975 20.9413 259.016 19.5889 251.481 20.1685C248.326 20.3617 244.848 20.8125 243.818 21.0701L241.886 21.5853L244.14 23.2597C249.807 27.5101 256.891 29.4421 262.429 28.2829C264.233 27.8965 266.937 27.4457 268.612 27.1881C271.445 26.8661 271.574 26.9305 274.794 30.4081C279.238 35.3025 284.132 41.8713 283.617 42.3865C283.424 42.5797 282.78 42.0645 282.136 41.2273C279.56 37.4277 277.048 35.4313 273.635 34.4653C269.32 33.1773 256.311 32.2757 256.311 33.3061C256.311 34.5297 261.721 38.7157 265.971 40.7765C269.835 42.6441 270.673 42.7729 277.177 42.8373C285.613 42.9017 285.098 42.5153 290.186 53.0769C294.179 61.4488 294.823 63.3164 293.599 62.93C293.084 62.7368 292.504 61.5776 292.311 60.2252C291.796 56.9408 290.057 54.8157 286 52.5617C282.973 50.8229 269.191 46.1217 268.676 46.6369C268.161 47.1521 271.317 52.1753 274.021 55.2021C277.499 59.066 283.746 62.4148 288.318 62.8656C293.921 63.3808 294.823 64.0248 296.175 68.4684C297.205 71.8816 298.236 77.9996 299.009 85.47C299.137 86.758 299.009 87.4664 298.558 87.3376C298.171 87.2088 297.785 85.5988 297.721 83.7312C297.592 79.674 295.402 75.6168 291.86 72.8476C288.383 70.0784 278.787 64.218 278.401 64.6044C277.821 65.184 279.495 71.4308 281.17 74.7152C283.231 78.9012 287.932 83.4736 292.053 85.3412C293.857 86.1784 295.595 86.8868 295.982 86.8868C296.368 86.8868 297.27 87.5952 298.107 88.368C299.588 89.978 299.588 89.7204 298.429 100.089C298.236 101.828 297.656 105.305 297.077 107.752C296.304 111.23 295.982 112.003 295.467 111.101C295.016 110.328 295.08 109.684 295.66 108.976C297.205 107.173 296.69 101.699 294.694 98.35C292.44 94.486 282.393 83.7956 281.685 84.504C281.363 84.826 281.17 87.2732 281.17 89.978C281.299 97.7704 285.356 105.048 291.731 109.105C295.853 111.681 296.046 112.904 293.406 119.473C290.959 125.462 285.163 135.702 284.776 134.607C284.647 134.285 285.356 132.739 286.386 131.258C287.932 128.94 288.189 127.845 288.189 124.303C288.189 120.504 287.803 119.28 284.712 112.776C282.78 108.847 281.041 105.563 280.783 105.563C280.526 105.563 279.624 107.108 278.787 108.912C277.499 111.681 277.241 113.355 277.241 118.121C277.241 124.367 278.658 128.682 281.685 131.967C284.197 134.671 284.197 136.153 281.492 139.566C277.692 144.331 267.71 153.541 267.324 152.51C267.195 152.059 267.388 151.544 267.839 151.415C269.32 150.9 272.347 148.002 273.764 145.748C275.503 142.915 275.696 137.569 274.343 129.197L273.506 123.53L270.995 125.977C265.392 131.387 262.494 141.82 264.941 147.68C265.521 149.033 265.971 151.093 265.971 152.253C265.971 154.056 265.521 154.635 262.558 156.632C256.247 160.753 243.11 166.807 243.625 165.261C243.754 164.875 244.913 164.295 246.201 163.973C249.743 163.136 254.057 158.95 255.539 154.957C256.762 151.737 259.081 141.627 258.694 141.24C258.179 140.661 251.353 144.911 248.905 147.358C244.784 151.415 242.788 155.73 242.788 160.625C242.788 162.814 242.401 165.004 242.015 165.583C240.984 166.871 238.022 167.773 229.457 169.512C225.657 170.285 222.502 171.315 222.373 171.701C222.051 172.603 222.759 172.539 232.806 170.478C241.371 168.675 243.045 168.739 245.492 171.186C250.644 176.274 264.555 177.111 275.503 173.054C277.37 172.345 278.723 171.508 278.465 171.122C277.692 169.898 270.222 166.743 265.392 165.712C259.725 164.424 253.864 164.746 248.326 166.678C243.174 168.481 242.144 168.353 246.973 166.485C251.739 164.682 257.793 161.591 261.85 159.015C265.521 156.696 267.066 156.632 270.286 158.499C275.052 161.333 285.678 160.109 294.565 155.666C298.365 153.798 301.391 151.544 301.391 150.643C301.391 150.385 299.846 149.87 298.043 149.483C286.451 147.036 277.241 148.517 270.415 153.927C268.998 155.022 267.71 155.795 267.581 155.666C267.388 155.473 269.191 153.798 271.51 151.931C273.828 150.063 277.37 146.65 279.367 144.331C284.132 138.986 285.163 138.471 289.22 139.308C295.66 140.596 303.13 137.634 310.021 130.936C311.889 129.133 313.821 126.686 314.465 125.462L315.495 123.273L312.983 123.08C308.926 122.758 303.323 124.045 298.429 126.493C294.307 128.489 291.603 130.807 286.257 136.797C284.197 139.115 284.776 137.891 287.61 133.899C289.864 130.743 296.239 118.572 296.239 117.412C296.239 115.996 298.558 114.772 301.971 114.386C306.35 113.87 310.021 111.681 314.143 107.173C317.427 103.566 321.098 96.9332 321.484 93.9708C321.677 92.554 321.484 92.3608 320.067 92.554C317.62 92.9404 310.987 96.2248 307.896 98.672C303.903 101.828 300.941 105.82 299.395 110.2C298.622 112.26 297.914 113.87 297.785 113.806C297.721 113.677 298.043 112.067 298.493 110.264C299.009 108.396 299.717 103.888 300.103 100.282C301.005 91.7812 301.391 91.0084 304.611 90.1068C311.309 88.3036 317.491 77.1624 317.491 66.8584C317.491 65.506 317.234 64.2824 316.912 64.0892C316.075 63.5096 310.923 67.116 307.96 70.4004C303.967 74.7796 301.907 79.5452 301.456 85.8564L301.005 91.0728L300.554 86.2428C300.297 83.6024 299.781 79.03 299.331 76.1964C298.429 69.5632 298.815 68.2108 301.971 66.472C306.093 64.0892 307.509 60.4184 307.509 51.7889C307.509 45.1557 306.415 39.2309 305.255 39.2309C304.161 39.2309 299.846 44.7693 298.3 48.1825C296.883 51.1449 296.626 52.6905 296.626 56.9408C296.69 59.7744 297.141 63.3164 297.656 64.862C298.236 66.3432 298.493 67.6956 298.236 67.8888C297.978 68.0176 297.205 66.472 296.626 64.4756C295.982 62.4792 294.307 58.3576 292.955 55.3953C291.603 52.4329 290.443 49.3417 290.443 48.5689C290.443 47.8605 291.281 46.3793 292.311 45.4133C296.626 41.2917 296.239 32.2113 291.345 22.4225C288.898 17.5281 288.254 17.3993 286.322 21.3921C283.102 27.9609 283.617 37.9429 287.545 43.8677C288.447 45.2201 289.155 46.6369 289.155 47.0233C289.155 47.4741 287.739 45.6709 286 43.0305C284.197 40.3901 281.299 36.5905 279.495 34.5297C275.309 29.9573 274.665 27.8965 276.533 25.8357C278.658 23.4529 278.401 17.4637 276.018 12.5693C273.957 8.31897 266.229 0.0757887 265.263 1.04179C264.233 2.07218 264.426 10.3798 265.585 14.3725C266.937 19.0093 267.903 20.6193 271.703 24.5477C273.249 26.2221 274.472 27.7677 274.279 27.8965C274.086 28.0897 271.767 26.3509 269.127 24.0325C266.551 21.6497 262.687 18.5585 260.691 17.1417C258.179 15.4029 256.955 14.0505 256.955 13.2133C256.955 10.9594 254.508 7.73937 251.353 5.67857C247.167 3.03818 234.416 -0.954609 234.416 0.397788Z" fill=""></path><path d="M226.687 54.3656C226.687 57.3924 226.559 59.8396 226.494 59.8396C226.365 59.8396 225.335 59.3888 224.176 58.8092C221.535 57.5212 217.221 58.0364 214.709 59.9684C209.3 64.2832 209.3 76.004 214.773 80.3188C217.092 82.122 223.661 82.3152 225.528 80.6408C226.623 79.6748 226.687 79.6748 226.687 80.6408C226.687 81.478 227.331 81.7356 229.585 81.7356H232.483V65.3136V48.8916H229.585H226.687V54.3656ZM225.335 64.4764C228.04 67.3744 227.847 73.6212 224.949 75.9396C219.088 80.512 213.485 70.9808 218.38 64.734C220.054 62.5444 223.467 62.4156 225.335 64.4764Z" fill=""></path><path d="M62.4033 58.8734C60.1493 59.9038 57.5733 63.1882 58.2173 64.283C58.4105 64.605 59.3765 65.0558 60.2781 65.249C61.5661 65.571 62.3389 65.3778 63.2405 64.4118C65.6233 61.8358 70.8397 63.317 70.8397 66.4726C70.8397 67.3742 70.1957 67.5674 67.3621 67.5674C63.3049 67.5674 60.8577 68.3402 58.7969 70.2722C55.9633 72.9126 56.3497 78.5798 59.5053 80.7694C61.5017 82.1862 66.7181 81.993 69.2941 80.383L71.4837 79.0306V80.383C71.4837 81.5422 71.8701 81.7354 74.1241 81.7354H76.7645L76.5069 73.1702C76.3137 63.961 75.7341 61.9002 72.6429 59.6462C70.3889 57.9718 65.4301 57.5854 62.4033 58.8734ZM70.8397 72.3974C70.8397 74.7802 67.1045 77.6138 64.5929 77.0986C63.1761 76.841 62.7253 74.3294 63.7557 72.977C64.4641 72.1398 70.8397 71.5602 70.8397 72.3974Z" fill=""></path><path d="M173.88 59.0022C172.656 59.6462 171.111 61.063 170.467 62.2222L169.307 64.2186L171.626 64.9914C173.751 65.6998 174.073 65.6354 174.91 64.4118C175.619 63.4458 176.585 63.0594 178.323 63.0594C181.028 63.0594 182.252 63.961 182.252 66.0218C182.252 67.3098 181.865 67.4386 177.744 67.6962C173.687 67.8894 173.043 68.147 170.982 70.1434C168.084 72.977 167.826 76.7122 170.402 79.739C171.883 81.5422 172.463 81.7354 175.619 81.7354C178.13 81.7354 179.676 81.349 180.964 80.4474L182.831 79.1594L183.218 80.4474C183.54 81.4134 184.184 81.7354 185.858 81.7354H188.048V73.299C188.048 61.3206 186.631 58.809 179.547 58.165C177.035 57.9074 175.554 58.1006 173.88 59.0022ZM182.252 73.299C182.252 74.8446 179.354 77.2274 177.486 77.2274C174.717 77.2274 173.429 74.0718 175.683 72.7838C176.263 72.3974 178.001 72.0754 179.547 72.0754C181.801 72.0754 182.252 72.2686 182.252 73.299Z" fill=""></path><path d="M203.503 58.3582C202.988 58.5514 201.765 59.453 200.799 60.3546L198.995 62.029V60.2902C198.995 58.6802 198.802 58.5514 196.097 58.5514H193.199V70.1434V81.7354H196.097H198.995V75.7462C199.06 66.7946 201.507 62.351 206.079 63.2526C207.689 63.639 207.883 63.4458 208.205 61.3206C208.462 60.0326 208.462 58.7446 208.269 58.4226C207.883 57.843 205.049 57.7786 203.503 58.3582Z" fill=""></path><path d="M242.015 58.8737C239.761 60.1617 238.923 61.7073 238.923 64.8629C238.923 67.8897 240.34 69.3709 245.557 71.6893C248.326 72.9129 249.227 73.6213 249.227 74.6517C249.227 77.4209 243.303 77.3565 242.465 74.5873C241.886 72.8485 240.469 73.1061 237.056 75.6821C236.927 75.8109 237.507 76.7769 238.279 77.9361C241.95 83.0237 250.773 82.9593 253.413 77.8717C255.796 73.2993 253.929 69.8217 247.939 67.6321C244.591 66.4085 244.075 66.0221 244.075 64.5409C244.075 63.0597 244.269 62.9309 246.201 63.1885C247.295 63.3817 248.712 63.7037 249.227 63.8969C249.743 64.1545 250.902 63.7037 251.739 62.9953L253.349 61.7073L251.675 60.0329C249.549 57.9721 244.655 57.3925 242.015 58.8737Z" fill=""></path><path d="M79.2119 59.0022C79.2119 59.3886 84.2995 75.7462 85.9739 80.8982C86.1671 81.4134 87.3263 81.7354 88.8075 81.7354C91.3191 81.7354 91.4479 81.671 92.0919 78.9662C94.2171 70.8518 94.9255 68.469 95.2475 68.0826C95.5051 67.825 96.4711 70.7874 97.5015 74.6514L99.3047 81.7354H101.752C104.135 81.7354 104.199 81.671 105.487 78.0002C106.968 73.943 111.412 59.6462 111.412 59.0022C111.412 58.7446 110.253 58.5514 108.9 58.5514C106.067 58.5514 106.453 57.7142 103.362 69.8214L102.203 74.265L100.399 67.5674C99.4335 63.8322 98.5963 60.2902 98.5963 59.6462C98.5319 58.809 97.9523 58.5514 95.6339 58.5514C92.4139 58.5514 92.8647 57.7142 90.4175 68.3402C89.7735 71.1094 89.0651 73.3634 88.8719 73.3634C88.6143 73.3634 87.5839 70.0146 86.5535 65.9574L84.6859 58.5514H81.9811C80.4355 58.5514 79.2119 58.7446 79.2119 59.0022Z" fill=""></path><path d="M120.106 59.3243C119.977 59.7751 119.268 62.6087 118.56 65.6354C117.852 68.6622 117.014 71.7534 116.757 72.5906C116.242 73.943 116.177 73.8786 115.34 71.6246C114.889 70.2722 114.245 68.3402 113.794 67.3098L113.086 65.4422L111.991 68.7266C110.896 71.8822 110.896 72.0754 112.313 76.7122L113.73 81.4134L116.37 81.6066L118.946 81.7998L120.75 74.7158C121.716 70.7874 122.682 67.5674 122.939 67.5674C123.197 67.5674 123.905 69.757 124.549 72.4618C126.932 82.3794 126.61 81.7998 129.572 81.6066L132.277 81.4134L133.758 76.5834C137.236 65.6354 139.104 59.5175 139.104 59.0023C139.104 58.7447 137.88 58.5515 136.334 58.5515H133.565L131.698 66.2794C130.667 70.5298 129.701 73.8786 129.572 73.6854C129.379 73.5566 128.478 70.1434 127.512 66.1506L125.773 58.8735L123.068 58.6803C121.329 58.5515 120.299 58.7447 120.106 59.3243Z" fill=""></path><path d="M147.798 59.3242C147.604 59.775 146.767 63.1882 145.866 66.859C145.028 70.5298 144.191 73.621 144.062 73.7498C143.934 73.8786 143.29 72.2686 142.646 70.1434C142.002 67.9538 141.229 66.0862 140.971 65.893C140.649 65.6998 140.005 67.1166 139.426 68.9842C138.46 72.2686 138.524 72.655 139.941 76.9054L141.486 81.4133L144.127 81.6065C147.089 81.7997 146.767 82.3793 149.15 72.4618C149.794 69.757 150.502 67.7606 150.696 68.0182C150.953 68.3402 151.597 70.2722 152.112 72.3974C154.882 82.7657 154.302 81.7353 157.2 81.7353C158.681 81.7353 159.84 81.4133 159.969 80.8981C160.162 80.5117 161.708 75.6174 163.511 70.079C165.314 64.605 166.796 59.7106 166.796 59.3242C166.796 58.8734 165.701 58.5514 164.026 58.5514H161.257L160.098 63.8322C158.488 70.8518 157.393 73.943 156.878 72.7194C156.685 72.2042 155.848 68.8554 155.01 65.3134L153.594 58.8734L150.824 58.6802C149.021 58.5514 147.991 58.7446 147.798 59.3242Z" fill=""></path><path d="M4.50806 67.7606C4.50806 74.9734 7.66365 83.0234 12.1072 87.0162C14.5544 89.2702 18.998 91.2666 19.7708 90.4938C20.4148 89.8498 20.1572 82.8946 19.3844 79.9966C18.2252 75.8106 13.7172 69.6926 9.46685 66.537C7.40605 64.9914 5.40965 63.7034 5.08766 63.7034C4.76566 63.7034 4.50806 65.5066 4.50806 67.7606Z" fill=""></path><path d="M259.532 75.2954C256.956 77.8714 258.501 81.7354 262.043 81.7354C265.778 81.7354 267.195 77.6782 264.297 75.3598C262.172 73.6854 261.142 73.6854 259.532 75.2954Z" fill=""></path><path d="M181.862 130L181.274 130.007C180.677 130.007 180.308 129.916 180.167 129.733C180.103 129.651 180.071 129.553 180.071 129.439C180.071 129.321 180.117 129.239 180.208 129.193C180.299 129.148 180.399 129.123 180.509 129.118C180.623 129.114 180.725 129.079 180.816 129.016C180.908 128.947 180.953 128.84 180.953 128.694V124.791C180.953 124.527 180.789 124.367 180.461 124.312C180.233 124.276 180.094 124.237 180.044 124.196C179.998 124.151 179.976 124.073 179.976 123.964C179.976 123.85 180.055 123.747 180.215 123.656C180.484 123.492 180.821 123.41 181.227 123.41C181.637 123.41 181.899 123.469 182.013 123.588C182.131 123.702 182.19 123.959 182.19 124.36C182.815 123.654 183.674 123.301 184.768 123.301C185.656 123.301 186.285 123.545 186.654 124.032C187.028 124.515 187.215 125.249 187.215 126.233V128.694C187.215 128.959 187.361 129.1 187.652 129.118C187.949 129.132 188.097 129.248 188.097 129.467C188.097 129.713 187.955 129.868 187.673 129.932C187.463 129.977 187.174 130 186.805 130L186.217 130.007C185.62 130.007 185.251 129.916 185.109 129.733C185.046 129.651 185.014 129.553 185.014 129.439C185.014 129.321 185.059 129.239 185.15 129.193C185.242 129.148 185.342 129.123 185.451 129.118C185.565 129.114 185.668 129.079 185.759 129.016C185.85 128.947 185.896 128.84 185.896 128.694V126.705C185.896 125.857 185.798 125.238 185.602 124.846C185.383 124.404 184.943 124.183 184.282 124.183C183.485 124.183 182.942 124.395 182.655 124.818C182.386 125.219 182.252 125.86 182.252 126.739V128.694C182.252 128.959 182.398 129.1 182.689 129.118C182.986 129.132 183.134 129.248 183.134 129.467C183.134 129.717 182.995 129.872 182.717 129.932C182.516 129.977 182.231 130 181.862 130Z" fill=""></path><path d="M175.484 130.171C174.454 130.171 173.625 129.847 172.996 129.2C172.367 128.549 172.053 127.724 172.053 126.726C172.053 126.06 172.219 125.468 172.552 124.948C172.884 124.429 173.333 124.032 173.898 123.759C174.468 123.481 175.102 123.342 175.799 123.342C176.801 123.342 177.629 123.654 178.28 124.278C178.932 124.903 179.258 125.709 179.258 126.698C179.258 127.382 179.089 127.99 178.752 128.523C178.419 129.052 177.968 129.46 177.398 129.747C176.829 130.03 176.191 130.171 175.484 130.171ZM175.765 129.412C176.444 129.412 176.972 129.182 177.351 128.722C177.733 128.261 177.925 127.648 177.925 126.883C177.925 126.117 177.706 125.456 177.269 124.9C176.831 124.344 176.268 124.066 175.58 124.066C174.896 124.066 174.37 124.301 174.001 124.771C173.632 125.24 173.447 125.855 173.447 126.616C173.447 127.377 173.664 128.034 174.097 128.585C174.53 129.136 175.086 129.412 175.765 129.412Z" fill=""></path><path d="M168.491 121.421C168.491 121.22 168.587 121.034 168.778 120.86C168.974 120.683 169.186 120.594 169.414 120.594C169.646 120.594 169.87 120.664 170.084 120.806C170.303 120.947 170.412 121.134 170.412 121.366C170.412 121.599 170.321 121.795 170.139 121.954C169.956 122.109 169.733 122.187 169.469 122.187C169.204 122.187 168.974 122.114 168.778 121.968C168.587 121.822 168.491 121.64 168.491 121.421ZM169.92 130L169.332 130.007C168.735 130.007 168.366 129.916 168.225 129.733C168.161 129.651 168.129 129.553 168.129 129.439C168.129 129.321 168.174 129.239 168.266 129.193C168.357 129.148 168.457 129.123 168.566 129.118C168.68 129.114 168.783 129.079 168.874 129.016C168.965 128.947 169.011 128.84 169.011 128.694V125.017C169.011 124.602 168.849 124.379 168.525 124.347C168.493 124.342 168.452 124.338 168.402 124.333C168.352 124.328 168.316 124.326 168.293 124.326C168.27 124.322 168.241 124.317 168.204 124.312C168.172 124.303 168.147 124.294 168.129 124.285C168.115 124.276 168.099 124.265 168.081 124.251C168.049 124.228 168.033 124.164 168.033 124.06C168.033 123.95 168.102 123.839 168.238 123.725C168.498 123.515 168.844 123.41 169.277 123.41C169.678 123.41 169.913 123.426 169.981 123.458C170.054 123.49 170.116 123.524 170.166 123.561C170.262 123.624 170.31 123.745 170.31 123.923V128.694C170.31 128.959 170.455 129.1 170.747 129.118C171.043 129.132 171.191 129.248 171.191 129.467C171.191 129.717 171.055 129.872 170.781 129.932C170.572 129.977 170.285 130 169.92 130Z" fill=""></path><path d="M163.139 124.34L162.722 124.347C162.553 124.347 162.43 124.331 162.353 124.299C162.275 124.267 162.236 124.201 162.236 124.101C162.236 123.996 162.28 123.902 162.366 123.82C162.457 123.734 162.56 123.668 162.674 123.622C162.988 123.494 163.175 123.387 163.234 123.301C163.298 123.21 163.392 123.014 163.515 122.713C163.82 121.961 164.075 121.585 164.28 121.585C164.385 121.585 164.444 121.699 164.458 121.927C164.476 122.15 164.485 122.321 164.485 122.439C164.49 122.558 164.49 122.736 164.485 122.973C164.481 123.205 164.479 123.367 164.479 123.458L166.105 123.465C166.265 123.465 166.399 123.506 166.509 123.588C166.618 123.665 166.673 123.77 166.673 123.902C166.673 124.035 166.618 124.137 166.509 124.21C166.404 124.283 166.272 124.319 166.112 124.319H164.479L164.472 127.812C164.472 128.801 164.72 129.296 165.217 129.296C165.354 129.296 165.556 129.255 165.825 129.173C166.094 129.086 166.27 129.043 166.352 129.043C166.538 129.043 166.632 129.15 166.632 129.364C166.632 129.533 166.411 129.701 165.969 129.87C165.531 130.039 165.08 130.123 164.615 130.123C164.155 130.123 163.793 129.943 163.528 129.583C163.269 129.223 163.139 128.749 163.139 128.161V124.34Z" fill=""></path><path d="M155.558 130L154.97 130.007C154.373 130.007 154.004 129.916 153.862 129.733C153.799 129.651 153.767 129.553 153.767 129.439C153.767 129.321 153.812 129.239 153.903 129.193C153.994 129.148 154.095 129.123 154.204 129.118C154.318 129.114 154.421 129.079 154.512 129.016C154.603 128.947 154.648 128.84 154.648 128.694V124.791C154.648 124.527 154.484 124.367 154.156 124.312C153.928 124.276 153.789 124.237 153.739 124.196C153.694 124.151 153.671 124.073 153.671 123.964C153.671 123.85 153.751 123.747 153.91 123.656C154.179 123.492 154.516 123.41 154.922 123.41C155.332 123.41 155.594 123.469 155.708 123.588C155.826 123.702 155.886 123.959 155.886 124.36C156.51 123.654 157.369 123.301 158.463 123.301C159.352 123.301 159.98 123.545 160.35 124.032C160.723 124.515 160.91 125.249 160.91 126.233V128.694C160.91 128.959 161.056 129.1 161.348 129.118C161.644 129.132 161.792 129.248 161.792 129.467C161.792 129.713 161.651 129.868 161.368 129.932C161.159 129.977 160.869 130 160.5 130L159.912 130.007C159.315 130.007 158.946 129.916 158.805 129.733C158.741 129.651 158.709 129.553 158.709 129.439C158.709 129.321 158.755 129.239 158.846 129.193C158.937 129.148 159.037 129.123 159.146 129.118C159.26 129.114 159.363 129.079 159.454 129.016C159.545 128.947 159.591 128.84 159.591 128.694V126.705C159.591 125.857 159.493 125.238 159.297 124.846C159.078 124.404 158.638 124.183 157.978 124.183C157.18 124.183 156.638 124.395 156.351 124.818C156.082 125.219 155.947 125.86 155.947 126.739V128.694C155.947 128.959 156.093 129.1 156.385 129.118C156.681 129.132 156.829 129.248 156.829 129.467C156.829 129.717 156.69 129.872 156.412 129.932C156.212 129.977 155.927 130 155.558 130Z" fill=""></path><path d="M147.553 129.255C146.924 128.635 146.609 127.812 146.609 126.787C146.609 125.762 146.926 124.93 147.56 124.292C148.198 123.649 149.009 123.328 149.993 123.328C150.772 123.328 151.429 123.581 151.962 124.087C152.5 124.588 152.769 125.219 152.769 125.98C152.769 126.35 152.477 126.534 151.894 126.534H147.936C147.945 127.272 148.184 127.895 148.653 128.4C149.123 128.906 149.715 129.159 150.431 129.159C150.905 129.159 151.365 129.02 151.812 128.742C152.049 128.596 152.199 128.523 152.263 128.523C152.331 128.523 152.406 128.558 152.488 128.626C152.575 128.69 152.618 128.77 152.618 128.865C152.618 129.116 152.456 129.348 152.133 129.562C151.814 129.772 151.461 129.927 151.073 130.027C150.686 130.132 150.346 130.185 150.055 130.185C149.02 130.185 148.186 129.875 147.553 129.255ZM151.511 125.816C151.502 125.292 151.365 124.866 151.101 124.538C150.836 124.21 150.449 124.046 149.938 124.046C149.433 124.046 148.988 124.228 148.605 124.593C148.227 124.957 148.027 125.374 148.004 125.844H149.604C150.314 125.844 150.95 125.835 151.511 125.816Z" fill=""></path><path d="M134.236 121.564C134.236 121.478 134.045 121.384 133.662 121.284C133.279 121.179 133.088 121.088 133.088 121.011C133.088 120.596 133.56 120.389 134.503 120.389L135.104 120.402C135.182 120.402 135.289 120.462 135.426 120.58C135.562 120.699 135.667 120.822 135.74 120.949L139.343 127.437C140.054 126.284 141.207 124.363 142.802 121.674V121.681C142.825 121.64 142.877 121.537 142.959 121.373C143.046 121.209 143.114 121.088 143.164 121.011C143.219 120.933 143.292 120.838 143.383 120.724C143.561 120.509 143.779 120.402 144.039 120.402L144.538 120.396C145.372 120.396 145.789 120.601 145.789 121.011C145.789 121.152 145.593 121.245 145.201 121.291C144.809 121.332 144.613 121.423 144.613 121.564V128.824C144.613 128.911 144.711 128.984 144.907 129.043C145.103 129.098 145.299 129.15 145.495 129.2C145.691 129.25 145.789 129.312 145.789 129.385C145.789 129.799 145.338 130.007 144.436 130.007L143.896 129.993L143.328 130.007C142.435 130.007 141.988 129.799 141.988 129.385C141.988 129.28 142.084 129.209 142.275 129.173C142.467 129.132 142.656 129.093 142.843 129.057C143.034 129.016 143.13 128.938 143.13 128.824V122.727C143.043 122.877 142.651 123.588 141.954 124.859C140.778 126.992 139.979 128.309 139.555 128.811V128.804C139.427 128.931 139.309 128.995 139.199 128.995C139.09 128.995 139.001 128.986 138.933 128.968C138.864 128.945 138.803 128.906 138.748 128.852C138.698 128.797 138.659 128.754 138.632 128.722C138.604 128.685 138.568 128.624 138.522 128.537C138.477 128.451 138.445 128.394 138.427 128.366L135.439 123.458V128.824C135.439 128.911 135.537 128.984 135.733 129.043C135.929 129.098 136.125 129.15 136.321 129.2C136.522 129.246 136.622 129.307 136.622 129.385C136.622 129.795 136.198 130 135.351 130L134.852 129.993L134.332 130.007C133.503 130.007 133.088 129.799 133.088 129.385C133.088 129.275 133.184 129.202 133.375 129.166C133.566 129.13 133.758 129.093 133.949 129.057C134.141 129.016 134.236 128.938 134.236 128.824V121.564Z" fill=""></path><path d="M189.539 113.255C188.91 112.635 188.596 111.812 188.596 110.787C188.596 109.762 188.912 108.93 189.546 108.292C190.184 107.649 190.995 107.328 191.979 107.328C192.759 107.328 193.415 107.581 193.948 108.087C194.486 108.588 194.755 109.219 194.755 109.98C194.755 110.35 194.463 110.534 193.88 110.534H189.922C189.931 111.272 190.17 111.895 190.64 112.4C191.109 112.906 191.701 113.159 192.417 113.159C192.891 113.159 193.351 113.02 193.798 112.742C194.035 112.596 194.185 112.523 194.249 112.523C194.317 112.523 194.393 112.558 194.475 112.626C194.561 112.69 194.604 112.77 194.604 112.865C194.604 113.116 194.443 113.348 194.119 113.562C193.8 113.772 193.447 113.927 193.06 114.027C192.672 114.132 192.333 114.185 192.041 114.185C191.007 114.185 190.173 113.875 189.539 113.255ZM193.497 109.816C193.488 109.292 193.351 108.866 193.087 108.538C192.823 108.21 192.435 108.046 191.925 108.046C191.419 108.046 190.975 108.228 190.592 108.593C190.214 108.957 190.013 109.374 189.99 109.844H191.59C192.301 109.844 192.937 109.835 193.497 109.816Z" fill=""></path><path d="M186.613 114L186.025 114.007C185.428 114.007 185.059 113.916 184.918 113.733C184.854 113.651 184.822 113.553 184.822 113.439C184.822 113.321 184.868 113.239 184.959 113.193C185.05 113.148 185.15 113.123 185.26 113.118C185.369 113.114 185.469 113.079 185.561 113.016C185.652 112.947 185.697 112.84 185.697 112.694V105.476C185.697 105.061 185.533 104.838 185.205 104.806C185.173 104.801 185.132 104.797 185.082 104.792C185.032 104.787 184.995 104.785 184.973 104.785C184.95 104.781 184.92 104.776 184.884 104.771C184.852 104.762 184.827 104.753 184.809 104.744C184.795 104.735 184.781 104.724 184.768 104.71C184.736 104.683 184.72 104.617 184.72 104.512C184.72 104.407 184.79 104.298 184.932 104.184C185.187 103.974 185.531 103.869 185.964 103.869C186.424 103.869 186.693 103.896 186.771 103.951C186.925 104.061 187.003 104.204 187.003 104.382V112.694C187.003 112.959 187.149 113.1 187.44 113.118C187.737 113.132 187.885 113.248 187.885 113.467C187.885 113.717 187.748 113.872 187.475 113.932C187.265 113.977 186.978 114 186.613 114Z" fill=""></path><path d="M182.259 111.04C182.259 110.575 182.172 110.129 181.999 109.7C181.826 109.267 181.571 108.907 181.233 108.62C180.901 108.333 180.527 108.189 180.112 108.189C179.543 108.189 179.016 108.413 178.533 108.859V112.626C179.076 113.054 179.659 113.269 180.283 113.269C180.908 113.269 181.393 113.063 181.739 112.653C182.086 112.243 182.259 111.705 182.259 111.04ZM177.501 114.055C177.323 114.055 177.234 113.847 177.234 113.433V105.476C177.234 105.061 177.07 104.838 176.742 104.806C176.71 104.801 176.669 104.797 176.619 104.792C176.569 104.787 176.533 104.785 176.51 104.785C176.487 104.781 176.457 104.776 176.421 104.771C176.389 104.762 176.364 104.753 176.346 104.744C176.332 104.735 176.318 104.724 176.305 104.71C176.273 104.683 176.257 104.617 176.257 104.512C176.257 104.407 176.327 104.298 176.469 104.184C176.724 103.974 177.068 103.869 177.501 103.869C177.961 103.869 178.23 103.896 178.308 103.951C178.463 104.061 178.54 104.204 178.54 104.382V108.162C179.219 107.583 179.992 107.294 180.857 107.294C181.723 107.294 182.418 107.597 182.942 108.203C183.471 108.805 183.735 109.593 183.735 110.568C183.735 111.179 183.601 111.756 183.332 112.298C183.068 112.84 182.694 113.28 182.211 113.617C181.732 113.954 181.206 114.123 180.632 114.123C179.812 114.123 179.016 113.866 178.246 113.351C178.237 113.36 178.175 113.442 178.062 113.597C177.838 113.902 177.651 114.055 177.501 114.055Z" fill=""></path><path d="M170.05 109.666C169.881 109.666 169.69 109.6 169.476 109.468C169.266 109.331 169.161 109.156 169.161 108.941C169.161 108.723 169.223 108.518 169.346 108.326C169.469 108.135 169.628 107.98 169.824 107.861C170.02 107.738 170.248 107.636 170.508 107.554C170.982 107.403 171.492 107.328 172.039 107.328C172.96 107.328 173.627 107.533 174.042 107.943C174.461 108.349 174.671 109.021 174.671 109.96L174.664 111.977C174.664 112.464 174.726 112.77 174.849 112.893C174.881 112.924 174.981 112.965 175.149 113.016C175.614 113.161 175.847 113.273 175.847 113.351C175.847 113.829 175.357 114.068 174.377 114.068C174.008 114.068 173.766 113.986 173.652 113.822C173.543 113.658 173.484 113.36 173.475 112.927C173.27 113.296 172.957 113.594 172.538 113.822C172.119 114.05 171.67 114.164 171.191 114.164C170.713 114.164 170.307 114.103 169.975 113.979C169.642 113.856 169.371 113.658 169.161 113.385C168.956 113.107 168.854 112.808 168.854 112.489C168.854 112.17 168.89 111.915 168.963 111.724C169.036 111.528 169.127 111.364 169.236 111.231C169.346 111.099 169.494 110.981 169.681 110.876C169.872 110.771 170.05 110.689 170.214 110.63C170.378 110.566 170.59 110.509 170.85 110.459C171.232 110.386 171.554 110.336 171.813 110.309C172.073 110.277 172.208 110.258 172.217 110.254C172.244 110.249 172.399 110.233 172.682 110.206C172.969 110.174 173.194 110.113 173.358 110.021C173.358 109.156 173.242 108.59 173.01 108.326C172.805 108.098 172.467 107.984 171.998 107.984C171.529 107.984 171.175 108.105 170.938 108.347C170.706 108.584 170.59 108.962 170.59 109.481L170.597 109.632C170.405 109.655 170.223 109.666 170.05 109.666ZM173.358 110.637C173.049 110.751 172.698 110.83 172.306 110.876C171.918 110.917 171.613 110.967 171.39 111.026C171.166 111.086 170.979 111.159 170.829 111.245C170.483 111.446 170.31 111.79 170.31 112.277C170.31 113.061 170.765 113.453 171.677 113.453C172.465 113.453 172.964 113.077 173.174 112.325C173.297 111.897 173.358 111.334 173.358 110.637Z" fill=""></path><path d="M164.725 114L164.137 114.007C163.54 114.007 163.171 113.916 163.029 113.733C162.965 113.651 162.934 113.553 162.934 113.439C162.934 113.321 162.979 113.239 163.07 113.193C163.161 113.148 163.262 113.123 163.371 113.118C163.485 113.114 163.588 113.079 163.679 113.016C163.77 112.947 163.815 112.84 163.815 112.694V109.317C163.815 108.912 163.765 108.661 163.665 108.565C163.569 108.47 163.487 108.408 163.419 108.381C163.355 108.354 163.253 108.319 163.111 108.278C162.97 108.237 162.854 108.196 162.763 108.155C162.676 108.114 162.633 108.053 162.633 107.971C162.633 107.606 163.123 107.424 164.103 107.424C164.517 107.424 164.779 107.497 164.889 107.643C165.003 107.784 165.06 108.114 165.06 108.634C165.215 108.242 165.47 107.934 165.825 107.711C166.185 107.488 166.552 107.376 166.926 107.376C167.304 107.376 167.614 107.458 167.855 107.622C168.102 107.782 168.225 107.987 168.225 108.237C168.225 108.483 168.145 108.682 167.985 108.832C167.826 108.978 167.63 109.051 167.397 109.051C167.165 109.051 166.965 108.989 166.796 108.866C166.632 108.743 166.525 108.584 166.475 108.388C166.356 108.369 166.258 108.36 166.181 108.36C165.47 108.36 165.114 109.178 165.114 110.814V112.694C165.114 112.959 165.26 113.1 165.552 113.118C165.848 113.132 165.996 113.248 165.996 113.467C165.996 113.717 165.859 113.872 165.586 113.932C165.376 113.977 165.089 114 164.725 114Z" fill=""></path><path d="M158.326 114.171C157.296 114.171 156.467 113.847 155.838 113.2C155.209 112.549 154.895 111.724 154.895 110.726C154.895 110.06 155.061 109.468 155.394 108.948C155.726 108.429 156.175 108.032 156.74 107.759C157.31 107.481 157.943 107.342 158.641 107.342C159.643 107.342 160.47 107.654 161.122 108.278C161.774 108.903 162.1 109.709 162.1 110.698C162.1 111.382 161.931 111.99 161.594 112.523C161.261 113.052 160.81 113.46 160.24 113.747C159.671 114.03 159.033 114.171 158.326 114.171ZM158.606 113.412C159.285 113.412 159.814 113.182 160.192 112.722C160.575 112.261 160.767 111.648 160.767 110.883C160.767 110.117 160.548 109.456 160.11 108.9C159.673 108.344 159.11 108.066 158.422 108.066C157.738 108.066 157.212 108.301 156.843 108.771C156.474 109.24 156.289 109.855 156.289 110.616C156.289 111.377 156.506 112.034 156.938 112.585C157.371 113.136 157.927 113.412 158.606 113.412Z" fill=""></path><path d="M148.038 114L147.45 114.007C146.853 114.007 146.484 113.916 146.343 113.733C146.279 113.651 146.247 113.553 146.247 113.439C146.247 113.321 146.293 113.239 146.384 113.193C146.475 113.148 146.575 113.123 146.685 113.118C146.799 113.114 146.901 113.079 146.992 113.016C147.083 112.947 147.129 112.84 147.129 112.694V108.791C147.129 108.527 146.965 108.367 146.637 108.312C146.409 108.276 146.27 108.237 146.22 108.196C146.174 108.151 146.151 108.073 146.151 107.964C146.151 107.85 146.231 107.747 146.391 107.656C146.66 107.492 146.997 107.41 147.402 107.41C147.812 107.41 148.075 107.469 148.188 107.588C148.307 107.702 148.366 107.959 148.366 108.36C148.991 107.654 149.85 107.301 150.943 107.301C151.832 107.301 152.461 107.545 152.83 108.032C153.204 108.515 153.391 109.249 153.391 110.233V112.694C153.391 112.959 153.536 113.1 153.828 113.118C154.124 113.132 154.272 113.248 154.272 113.467C154.272 113.713 154.131 113.868 153.849 113.932C153.639 113.977 153.35 114 152.98 114L152.393 114.007C151.796 114.007 151.426 113.916 151.285 113.733C151.221 113.651 151.189 113.553 151.189 113.439C151.189 113.321 151.235 113.239 151.326 113.193C151.417 113.148 151.518 113.123 151.627 113.118C151.741 113.114 151.843 113.079 151.935 113.016C152.026 112.947 152.071 112.84 152.071 112.694V110.705C152.071 109.857 151.973 109.238 151.777 108.846C151.559 108.404 151.119 108.183 150.458 108.183C149.66 108.183 149.118 108.395 148.831 108.818C148.562 109.219 148.428 109.86 148.428 110.739V112.694C148.428 112.959 148.574 113.1 148.865 113.118C149.161 113.132 149.31 113.248 149.31 113.467C149.31 113.717 149.171 113.872 148.893 113.932C148.692 113.977 148.407 114 148.038 114Z" fill=""></path><path d="M141.66 114.171C140.63 114.171 139.801 113.847 139.172 113.2C138.543 112.549 138.229 111.724 138.229 110.726C138.229 110.06 138.395 109.468 138.728 108.948C139.06 108.429 139.509 108.032 140.074 107.759C140.644 107.481 141.277 107.342 141.975 107.342C142.977 107.342 143.804 107.654 144.456 108.278C145.108 108.903 145.434 109.709 145.434 110.698C145.434 111.382 145.265 111.99 144.928 112.523C144.595 113.052 144.144 113.46 143.574 113.747C143.005 114.03 142.367 114.171 141.66 114.171ZM141.94 113.412C142.619 113.412 143.148 113.182 143.526 112.722C143.909 112.261 144.101 111.648 144.101 110.883C144.101 110.117 143.882 109.456 143.444 108.9C143.007 108.344 142.444 108.066 141.756 108.066C141.072 108.066 140.546 108.301 140.177 108.771C139.808 109.24 139.623 109.855 139.623 110.616C139.623 111.377 139.84 112.034 140.272 112.585C140.705 113.136 141.261 113.412 141.94 113.412Z" fill=""></path><path d="M135.863 114L135.139 114.007C134.478 114.007 134.07 113.909 133.915 113.713C133.847 113.626 133.812 113.526 133.812 113.412C133.812 113.298 133.854 113.221 133.936 113.18C134.022 113.134 134.134 113.102 134.271 113.084C134.412 113.066 134.51 113.043 134.564 113.016C134.742 112.934 134.831 112.772 134.831 112.53V109.475H128.973V112.53C128.973 112.731 129.025 112.874 129.13 112.961C129.239 113.043 129.371 113.093 129.526 113.111C129.681 113.125 129.779 113.139 129.82 113.152C129.943 113.18 130.005 113.266 130.005 113.412C130.005 113.558 129.971 113.674 129.902 113.761C129.834 113.843 129.709 113.9 129.526 113.932C129.294 113.977 128.859 114 128.221 114C127.583 114 127.177 113.982 127.004 113.945C126.653 113.854 126.471 113.667 126.457 113.385C126.457 113.225 126.612 113.125 126.922 113.084C127.068 113.061 127.166 113.038 127.216 113.016C127.394 112.943 127.482 112.781 127.482 112.53V105.865C127.482 105.519 127.312 105.332 126.97 105.305C126.683 105.282 126.525 105.239 126.498 105.175C126.471 105.111 126.457 105.027 126.457 104.922C126.457 104.817 126.491 104.724 126.56 104.642C126.628 104.555 126.751 104.496 126.929 104.464C127.157 104.423 127.587 104.402 128.221 104.402C128.859 104.402 129.267 104.421 129.444 104.457C129.809 104.544 129.996 104.73 130.005 105.018C130.005 105.182 129.845 105.282 129.526 105.318C129.385 105.332 129.289 105.35 129.239 105.373C129.062 105.446 128.973 105.61 128.973 105.865V108.688H134.831V105.865C134.831 105.528 134.66 105.343 134.318 105.312C134.086 105.289 133.942 105.25 133.888 105.195C133.838 105.141 133.812 105.068 133.812 104.977C133.812 104.881 133.833 104.799 133.874 104.73C133.915 104.662 133.981 104.61 134.072 104.573C134.163 104.532 134.25 104.5 134.332 104.478C134.419 104.45 134.542 104.432 134.701 104.423C134.934 104.409 135.13 104.402 135.289 104.402H135.549C136.205 104.402 136.627 104.437 136.813 104.505C137.174 104.632 137.354 104.803 137.354 105.018C137.354 105.118 137.31 105.188 137.224 105.229C137.137 105.266 137.023 105.293 136.882 105.312C136.741 105.325 136.645 105.343 136.595 105.366C136.417 105.448 136.328 105.615 136.328 105.865V112.53C136.328 112.731 136.381 112.874 136.485 112.961C136.595 113.043 136.725 113.093 136.875 113.111C137.03 113.125 137.13 113.139 137.176 113.152C137.294 113.18 137.354 113.255 137.354 113.378C137.354 113.496 137.335 113.592 137.299 113.665C137.267 113.733 137.208 113.79 137.121 113.836C137.035 113.877 136.957 113.909 136.889 113.932C136.82 113.954 136.711 113.97 136.561 113.979C136.333 113.993 136.1 114 135.863 114Z" fill=""></path></svg>