<?xml version="1.0" encoding="UTF-8"?>
<svg id="Layer_2" xmlns="http://www.w3.org/2000/svg" width="506.52" height="128.1" viewBox="0 0 506.52 128.1">
  <defs>
    <style>
      .cls-1 {
        fill: #2867b2;
      }
    </style>
  </defs>
  <g id="Layer_1-2" data-name="Layer_1">
    <g>
      <path class="cls-1" d="M497.95,0c.53.14,1.05.29,1.58.43,4.24,1.07,6.99,4.7,6.99,9.27,0,27.9,0,55.8,0,83.7,0,8.46.01,16.92,0,25.39,0,4.57-2.84,8.11-7.28,9.14-.57.13-1.19.16-1.78.16-36.69,0-73.39,0-110.08,0-4.87,0-8.91-3.99-9.04-8.87,0-.24,0-.48,0-.72,0-36.24,0-72.49,0-108.73,0-4.57,2.72-8.21,6.96-9.32.61-.16,1.22-.3,1.83-.46,36.94,0,73.89,0,110.83,0ZM446.68,56.29c0-2.53-.05-4.68.02-6.83.03-1.07-.26-1.45-1.4-1.43-5.24.06-10.47.06-15.71,0-1.16-.01-1.49.33-1.49,1.48.03,19.48.03,38.96,0,58.43,0,1.21.38,1.58,1.58,1.57,5.4-.05,10.79-.05,16.19,0,1.17.01,1.58-.28,1.58-1.54-.05-9.74-.06-19.48,0-29.22.01-2.02.14-4.07.49-6.06,1.42-8.14,6.73-9.96,13.3-9,4.01.58,5.97,3.53,6.61,7.26.46,2.69.69,5.46.72,8.19.08,9.62.05,19.24,0,28.86,0,1.13.28,1.52,1.46,1.51,5.44-.05,10.87-.05,16.31,0,1.07,0,1.43-.29,1.43-1.42-.04-11.97.08-23.95-.1-35.92-.05-3.63-.61-7.31-1.44-10.85-1.58-6.74-5.53-11.63-12.4-13.63-2.16-.63-4.44-.89-6.69-1.12-7.41-.75-13.69,1.51-18.59,7.25-.59.69-1.09,1.45-1.85,2.47ZM416.45,78.69c0-9.66,0-19.31,0-28.97q0-1.66-1.59-1.67c-5.43,0-10.87.03-16.3-.03-1.19-.01-1.45.38-1.45,1.5.03,19.47.03,38.94,0,58.42,0,1.21.35,1.58,1.56,1.57,5.39-.05,10.79-.02,16.18-.02,1.6,0,1.61,0,1.61-1.59,0-9.74,0-19.47,0-29.21ZM406.76,17.63c-6.16,0-11.09,4.92-11.09,11.07,0,6.18,4.99,11.16,11.18,11.15,6.13,0,11.07-4.97,11.07-11.12,0-6.24-4.89-11.1-11.16-11.1Z"/>
      <path class="cls-1" d="M340.2,54.28c0-.57,0-1.05,0-1.52,0-10.66,0-21.31,0-31.97,0-1.6,0-1.6,1.54-1.6,5.28,0,10.55.03,15.83-.02,1.15-.01,1.5.32,1.5,1.48-.03,29.02-.03,58.04,0,87.06,0,1.14-.3,1.5-1.47,1.48-4.76-.06-9.51-.06-14.27,0-1.12.01-1.56-.24-1.5-1.44.1-1.75.03-3.51.02-5.27,0-.42-.04-.84-.09-1.64-.62.66-1.02,1.06-1.39,1.48-4.13,4.78-9.35,7.7-15.6,8.2-12.73,1.03-24.99-4.77-29.93-17.98-4.49-11.99-3.34-23.67,3.67-34.5,4.04-6.25,9.88-10.2,17.29-11.37,6.05-.95,12.02-.41,17.64,2.3,2.26,1.09,4.17,2.64,5.79,4.57.18.21.36.42.55.62.04.05.14.04.43.12ZM326.43,94.26c.91-.09,1.83-.15,2.73-.28,3.64-.53,6.77-2.01,9.17-4.89,2.2-2.65,3.2-5.77,3.42-9.13.32-5.05-.77-9.68-4.57-13.33-2.63-2.52-5.89-3.62-9.45-3.82-4.68-.27-8.99.73-12.38,4.22-3.94,4.06-4.81,9.11-4.01,14.42,1.2,8.05,6.94,12.77,15.09,12.82Z"/>
      <path class="cls-1" d="M183.01,72.83c.81-.92,1.62-1.83,2.42-2.76,6.07-7,12.12-14.01,18.22-20.99.37-.42,1.04-.82,1.57-.83,7.08-.05,14.15-.04,21.23-.03.19,0,.38.03.79.07-.33.42-.55.72-.79,1-7.71,8.75-15.41,17.5-23.15,26.23-.62.7-.54,1.15-.03,1.84,7.54,10.11,15.06,20.25,22.58,30.38.3.4.58.81.98,1.38-.62.03-1.01.06-1.39.06-6.96,0-13.91-.02-20.87.02-.95,0-1.51-.3-2.03-1.09-6.2-9.34-12.43-18.66-18.66-27.99-.25-.38-.55-.74-.82-1.11-.1.03-.2.05-.31.08-.03.48-.1.97-.1,1.45,0,9.1-.02,18.2.02,27.31,0,1.05-.27,1.36-1.34,1.35-5.4-.05-10.79-.05-16.19,0-.98,0-1.3-.26-1.29-1.27.03-29.14.03-58.29,0-87.43,0-1.09.37-1.34,1.38-1.33,5.36.04,10.71.05,16.07,0,1.15-.01,1.38.4,1.37,1.46-.03,16.85-.02,33.69-.02,50.54,0,.51,0,1.02,0,1.52.12.05.24.1.37.15Z"/>
      <path class="cls-1" d="M270.63,89.12c4.35,3.19,8.63,6.32,13.14,9.61-1.16,1.18-2.2,2.37-3.37,3.41-6.05,5.35-13.08,8.27-21.2,8.53-8.74.28-16.78-1.79-23.75-7.21-6.55-5.09-10.32-11.85-11.37-20.06-.95-7.38-.04-14.49,3.75-21.03,4.77-8.23,12.09-12.98,21.23-15.07,5.71-1.31,11.48-1.47,17.18.09,9.65,2.64,15.6,9.08,18.62,18.43,1.06,3.27,1.63,6.64,1.71,10.09.06,2.43.11,4.86.21,7.29.03.82-.23,1.2-1.08,1.12-.36-.03-.72,0-1.08,0-13.43,0-26.87,0-40.3,0-1.88,0-1.93.08-1.41,1.9,1.91,6.63,8.54,10.98,15.3,10.24,4.99-.54,8.92-2.77,11.93-6.72.12-.16.25-.31.5-.61ZM242.65,71.69c.63,0,1.11,0,1.58,0,6.23,0,12.46,0,18.69,0,1.28,0,2.56-.03,3.83,0,.9.03,1.27-.31,1.09-1.21-.18-.89-.26-1.82-.54-2.68-1.57-4.86-5.9-7.92-11.01-8.03-5.72-.13-9.93,2.23-12.56,7.29-.71,1.37-1.23,2.84-1.09,4.62Z"/>
      <path class="cls-1" d="M112.98,56.68c.38-.41.59-.58.73-.8,4.28-6.33,10.24-9.34,17.89-9.17,4.07.09,8.04.55,11.73,2.4,4.96,2.49,7.63,6.74,9.07,11.9,1.17,4.21,1.52,8.53,1.53,12.89,0,11.22,0,22.44,0,33.65,0,1.59,0,1.59-1.55,1.59-5.16,0-10.31,0-15.47,0q-1.65,0-1.66-1.61c0-9.1.08-18.21-.04-27.31-.04-3.33-.23-6.71-.9-9.96-1.19-5.81-5.65-7.62-10.91-7.02-6.58.76-8.6,5.14-9.31,9.76-.37,2.39-.48,4.84-.49,7.26-.05,9.14-.04,18.28,0,27.43,0,1.16-.31,1.48-1.47,1.47-5.36-.06-10.71-.05-16.07,0-.98,0-1.3-.25-1.3-1.26.03-19.48.03-38.96,0-58.45,0-.91.2-1.25,1.19-1.25,5.24.05,10.47.05,15.71,0,1.01,0,1.2.37,1.18,1.26-.05,2.03-.02,4.07-.01,6.11,0,.26.06.53.14,1.1Z"/>
      <path class="cls-1" d="M19.54,55.18c0,11.45,0,22.91,0,34.36,0,1.58,0,1.58,1.56,1.58,11.23,0,22.46.02,33.69-.02,1.15,0,1.49.29,1.48,1.46-.06,5.11-.05,10.22,0,15.33,0,.96-.23,1.31-1.26,1.31-17.91-.03-35.81-.03-53.72,0-.99,0-1.29-.28-1.28-1.28C.03,78.78.03,49.64,0,20.51c0-1.07.33-1.35,1.36-1.35,5.6.04,11.19.05,16.79,0,1.09,0,1.42.31,1.42,1.42-.04,11.53-.02,23.07-.02,34.6Z"/>
      <path class="cls-1" d="M65.27,78.7c0-9.7.02-19.4-.02-29.09,0-1.09.28-1.43,1.4-1.41,5.39.05,10.79.04,16.18,0,.91,0,1.24.22,1.24,1.2-.03,19.51-.03,39.03,0,58.54,0,.94-.25,1.23-1.21,1.23-5.43-.04-10.87-.05-16.3,0-1.12.01-1.3-.39-1.3-1.39.03-9.7.02-19.4.02-29.09Z"/>
      <path class="cls-1" d="M63.77,28.7c0-6.07,4.77-10.89,10.81-10.9,6.15-.02,10.83,4.75,10.97,10.88.11,4.92-3.72,10.97-10.95,10.91-7.22-.06-10.98-5.92-10.83-10.89Z"/>
    </g>
  </g>
</svg>