<?xml version="1.0" encoding="UTF-8"?>
<svg id="Layer_2" xmlns="http://www.w3.org/2000/svg" width="128.03" height="127.93" viewBox="0 0 128.03 127.93">
  <defs>
    <style>
      .cls-1 {
        fill: #2867b2;
      }
    </style>
  </defs>
  <g id="Layer_1-2" data-name="Layer_1">
    <path class="cls-1" d="M63.99.04c18.17,0,36.34.05,54.51-.04,4.84-.02,8.76,3.44,9.41,7.7.07.47.11.95.11,1.42,0,36.57,0,73.14,0,109.71,0,4.85-3.86,8.86-8.69,9.07-.32.01-.64.01-.96.01-36.26,0-72.52,0-108.79,0-4.55,0-7.99-2.44-9.19-6.57-.25-.87-.38-1.8-.39-2.7C0,82.21,0,45.75,0,9.3,0,4.11,3.91.11,9.11.05c4.39-.05,8.79-.01,13.18-.01,13.9,0,27.8,0,41.69,0ZM68.27,56.2c0-2.55-.04-4.74.02-6.93.03-1.07-.26-1.46-1.4-1.44-5.23.06-10.46.07-15.69,0-1.24-.02-1.53.39-1.53,1.57.03,19.44.03,38.88,0,58.32,0,1.19.31,1.6,1.54,1.59,5.43-.06,10.86-.06,16.29,0,1.21.01,1.55-.35,1.54-1.57-.05-9.78-.05-19.56,0-29.34.01-2.02.14-4.07.49-6.06.74-4.14,2.62-7.49,7.05-8.59,1.37-.34,2.84-.4,4.26-.39,4.41.05,7.31,2.19,8.3,6.48.58,2.5.8,5.12.82,7.69.09,10.06.05,20.12.02,30.18,0,1.17.3,1.62,1.55,1.61,5.43-.06,10.86-.05,16.29,0,1.16.01,1.48-.36,1.48-1.51-.04-10.82-.03-21.64,0-32.46.01-4.44-.22-8.85-1.24-13.18-1.39-5.91-4.12-10.96-9.94-13.56-5.78-2.59-11.84-3.1-17.98-1.5-5.04,1.32-8.87,4.41-11.86,9.1ZM38.08,78.46c0-9.74-.01-19.47.02-29.21,0-1.08-.3-1.44-1.42-1.43-5.51.05-11.02.05-16.53,0-1.08,0-1.42.28-1.42,1.4.03,19.55.03,39.11,0,58.66,0,1.16.42,1.41,1.46,1.4,5.43-.03,10.86-.01,16.29-.02,1.6,0,1.6,0,1.6-1.6,0-9.74,0-19.47,0-29.21ZM28.43,39.64c6.16,0,11.1-4.92,11.1-11.06,0-6.2-4.95-11.16-11.14-11.16-6.19,0-11.1,4.95-11.09,11.2,0,6.14,4.94,11.03,11.12,11.02Z"/>
  </g>
</svg>