<?xml version="1.0" encoding="UTF-8"?>
<svg id="Layer_2" xmlns="http://www.w3.org/2000/svg" width="1019.03" height="717.19" viewBox="0 0 1019.03 717.19">
  <defs>
    <style>
      .cls-1 {
        fill: #fff;
      }

      .cls-2 {
        fill: #ed2024;
      }
    </style>
  </defs>
  <g id="Layer_1-2" data-name="Layer_1">
    <g>
      <path class="cls-2" d="M427.63,717.12c-40.56-1.27-88.01-2.3-135.41-4.37-39.25-1.72-78.48-4.24-117.65-7.25-24.04-1.85-48.29-3.92-71.23-12.1-43.6-15.55-71.25-46.27-82.7-90.96-9.91-38.71-13.39-78.44-15.85-118.18-2.06-33.23-3.35-66.51-4.32-99.79-1.68-57.49,1.32-114.85,5.89-172.14,2.62-32.89,5.81-65.79,14.31-97.75C34.16,63.94,66.54,31.29,117.84,19.88c24.27-5.4,49.34-7.88,74.19-9.82,40.49-3.16,81.09-5.02,121.66-7,21.12-1.03,42.28-1.27,63.42-1.64C411.41.82,445.72.02,480.03,0c46.13-.03,92.27.45,138.4,1.01,28.14.35,56.28.91,84.4,2.03,33.6,1.33,67.22,2.8,100.75,5.26,28.05,2.05,56.11,4.74,83.94,8.69,50.32,7.13,86.41,33.86,105.76,81.44,7.76,19.1,10.5,39.54,13.4,59.82,6.01,42.09,8.98,84.44,10.39,126.9.95,28.45,2.52,56.96,1.79,85.38-1.14,44.42-3.11,88.86-6.41,133.17-2.15,28.83-6.36,57.6-11.31,86.1-8.49,48.95-35.4,84-82.2,102.54-16.39,6.5-33.82,9.08-51.21,10.61-38.47,3.38-76.98,6.63-115.54,8.72-38.73,2.1-77.53,2.92-116.3,3.92-31.3.81-62.61,1.26-93.92,1.48-35.81.25-71.62.06-114.31.06ZM672.41,358.53c-89.6-50.97-178-101.26-266.74-151.74v303.48c88.89-50.57,177.13-100.76,266.74-151.74Z"/>
      <path class="cls-1" d="M672.41,358.53c-89.61,50.98-177.84,101.17-266.74,151.74V206.78c88.74,50.49,177.14,100.77,266.74,151.74Z"/>
    </g>
  </g>
</svg>